<svg width="73" height="14" viewBox="0 0 73 14" fill="none" xmlns="http://www.w3.org/2000/svg">
<path fill-rule="evenodd" clip-rule="evenodd" d="M31.3469 6.33924C31.7201 2.10007 34.8853 -0.363053 39.5636 0.0436184C44.2262 0.448934 46.9128 3.42074 46.5396 7.65991C46.1676 11.8836 43.0011 14.3622 38.3385 13.9569C33.6602 13.5502 30.9749 10.5629 31.3469 6.33924ZM39.1766 4.43816C37.8623 4.32391 36.6164 5.04486 36.4632 6.78398C36.3115 8.50761 37.4111 9.44817 38.7254 9.56243C40.0241 9.67532 41.287 8.94014 41.4388 7.21651C41.5919 5.47737 40.4753 4.55104 39.1766 4.43816Z" fill="#1F201A"/>
<path d="M27.2062 8.7316C28.6523 8.73161 29.8246 9.8964 29.8246 11.3332C29.8246 12.77 28.6523 13.9348 27.2062 13.9348C25.7602 13.9347 24.5879 12.77 24.5879 11.3332C24.5879 9.8964 25.7602 8.73162 27.2062 8.7316Z" fill="#1F201A"/>
<path d="M0.0116837 13.3874C1.51246 8.3054 6.61705 -0.84339 17.8177 0.296342C17.9635 0.311178 18.0774 0.434983 18.0775 0.581425V2.91076C18.0775 3.17401 18.4108 3.30997 18.6082 3.13567C20.1915 1.73748 23.6375 -0.19584 29.4314 0.300353C29.5793 0.313057 29.6943 0.437687 29.6943 0.58606L29.7198 6.92822C29.7198 7.08742 29.5907 7.21651 29.4314 7.21651H25.0407C24.8814 7.21649 24.7523 7.08741 24.7523 6.92822L24.7268 5.65782C24.7268 5.47704 24.5621 5.34119 24.388 5.39039C22.5726 5.90345 18.9699 8.08859 16.6185 13.569C16.5727 13.6758 16.4672 13.7474 16.3509 13.7474H11.9332C11.7547 13.7474 11.619 13.5869 11.6488 13.411L12.9545 5.71826C12.9881 5.52023 12.8153 5.35099 12.6222 5.40688C10.7235 5.95676 7.1008 8.1632 4.97403 13.5607C4.93022 13.6719 4.82255 13.7474 4.70299 13.7474H0.286851C0.0967258 13.7474 -0.0421072 13.5696 0.0116837 13.3874Z" fill="#1F201A"/>
<path d="M51.3657 0.381564C51.5362 0.381566 51.6843 0.498155 51.7234 0.663081L53.0389 6.21988C53.1168 6.54895 53.5641 6.60521 53.7221 6.30581L56.7443 0.577235C56.8078 0.456971 56.9332 0.381564 57.0698 0.381564H61.7597C62.0342 0.381569 62.2118 0.669749 62.087 0.912684L55.7096 13.3272C55.6468 13.4495 55.5203 13.5264 55.3822 13.5264H50.1092C49.9392 13.5264 49.7915 13.4106 49.7518 13.2464L46.7583 0.831831C46.7029 0.602261 46.8781 0.381564 47.1157 0.381564H51.3657Z" fill="#1F201A"/>
<path d="M69.6389 0.381564C69.8089 0.381578 69.9566 0.497426 69.9962 0.661654L72.9897 13.0762C73.0451 13.3058 72.8699 13.5264 72.6324 13.5264H68.3824C68.2118 13.5264 68.0636 13.4098 68.0246 13.2449L66.7091 7.68817C66.6312 7.3591 66.1839 7.30283 66.0259 7.60224L63.0037 13.3308C62.9403 13.4511 62.8149 13.5264 62.6782 13.5264H57.9884C57.7139 13.5264 57.5362 13.2382 57.661 12.9953L64.0385 0.580712C64.1013 0.458514 64.2277 0.381573 64.3658 0.381564H69.6389Z" fill="#1F201A"/>
</svg>
