<svg width="30" height="14" viewBox="0 0 30 14" fill="none" xmlns="http://www.w3.org/2000/svg">
<path d="M27.3662 8.69672C28.8208 8.69673 30 9.88393 30 11.3484C30 12.8128 28.8208 14 27.3662 14C25.9117 14 24.7325 12.8128 24.7325 11.3484C24.7325 9.88394 25.9117 8.69674 27.3662 8.69672Z" fill="#1F201A"/>
<path d="M0.0117524 13.4421C1.52136 8.26232 6.65596 -1.06251 17.9225 0.0991568C18.0692 0.114278 18.1838 0.240465 18.1838 0.389725V2.76388C18.1838 3.03219 18.5191 3.17077 18.7177 2.99312C20.3103 1.56802 23.7765 -0.402496 29.6044 0.103245C29.7532 0.116194 29.869 0.243221 29.869 0.39445L29.8946 6.85864C29.8946 7.0209 29.7647 7.15247 29.6044 7.15248H25.188C25.0277 7.15246 24.8978 7.02089 24.8978 6.85864L24.8722 5.5638C24.8722 5.37953 24.7065 5.24108 24.5314 5.29122C22.7053 5.81415 19.0815 8.04134 16.7163 13.6272C16.6702 13.7361 16.5641 13.809 16.4471 13.809H12.0034C11.8238 13.809 11.6873 13.6454 11.7173 13.4661L13.0307 5.6254C13.0645 5.42356 12.8906 5.25107 12.6964 5.30803C10.7865 5.86848 7.14256 8.11739 5.00328 13.6188C4.95921 13.7321 4.85091 13.809 4.73065 13.809H0.288538C0.0972946 13.809 -0.0423548 13.6279 0.0117524 13.4421Z" fill="#1F201A"/>
</svg>
